<svg width="128" height="128" viewBox="0 0 128 128" fill="none" xmlns="http://www.w3.org/2000/svg" role="img" aria-label="OpsPilot">
  <rect width="128" height="128" rx="28" fill="#070A12"/>
  <rect x="12" y="12" width="104" height="104" rx="22" fill="url(#paint0_radial)"/>
  <path d="M64 28C84.987 28 100 43.013 100 64C100 84.987 84.987 100 64 100C43.013 100 28 84.987 28 64C28 43.013 43.013 28 64 28Z" fill="#101827" stroke="#2DD4BF" stroke-opacity=".55" stroke-width="2"/>
  <path d="M45 68.5C45 57.454 53.954 48.5 65 48.5H78.5V61.5H65C61.134 61.5 58 64.634 58 68.5C58 72.366 61.134 75.5 65 75.5H84" stroke="white" stroke-width="9" stroke-linecap="round" stroke-linejoin="round"/>
  <circle cx="45" cy="45" r="6" fill="#A78BFA"/>
  <circle cx="86" cy="83" r="6" fill="#22D3EE"/>
  <defs>
    <radialGradient id="paint0_radial" cx="0" cy="0" r="1" gradientUnits="userSpaceOnUse" gradientTransform="translate(96 22) rotate(129.806) scale(103.078)">
      <stop stop-color="#1E40AF"/>
      <stop offset=".5" stop-color="#111827"/>
      <stop offset="1" stop-color="#020617"/>
    </radialGradient>
  </defs>
</svg>
